<mxfile host="app.diagrams.net" agent="Mozilla/5.0 (Windows NT 10.0; Win64; x64) AppleWebKit/537.36 (KHTML, like Gecko) Chrome/129.0.0.0 Safari/537.36" version="24.7.17">
  <diagram name="Page-1" id="IyFRSjIB1OWymfGwwwWB">
    <mxGraphModel dx="1687" dy="918" grid="1" gridSize="10" guides="1" tooltips="1" connect="1" arrows="1" fold="1" page="1" pageScale="1" pageWidth="850" pageHeight="1100" math="0" shadow="0">
      <root>
        <mxCell id="0" />
        <mxCell id="1" parent="0" />
        <mxCell id="aJpDnl_E3ih4D521yKXT-9" value="AWS Region" style="points=[[0,0],[0.25,0],[0.5,0],[0.75,0],[1,0],[1,0.25],[1,0.5],[1,0.75],[1,1],[0.75,1],[0.5,1],[0.25,1],[0,1],[0,0.75],[0,0.5],[0,0.25]];outlineConnect=0;gradientColor=none;html=1;whiteSpace=wrap;fontSize=12;fontStyle=0;container=1;pointerEvents=0;collapsible=0;recursiveResize=0;shape=mxgraph.aws4.group;grIcon=mxgraph.aws4.group_aws_cloud_alt;strokeColor=#232F3E;fillColor=none;verticalAlign=top;align=left;spacingLeft=30;fontColor=#232F3E;dashed=0;" vertex="1" parent="1">
          <mxGeometry x="80" y="120" width="880" height="650" as="geometry" />
        </mxCell>
        <mxCell id="aJpDnl_E3ih4D521yKXT-12" value="" style="rounded=1;arcSize=10;dashed=1;strokeColor=#F59D56;fillColor=none;gradientColor=none;dashPattern=8 4;strokeWidth=2;" vertex="1" parent="aJpDnl_E3ih4D521yKXT-9">
          <mxGeometry x="130" y="50" width="700" height="440" as="geometry" />
        </mxCell>
        <mxCell id="aJpDnl_E3ih4D521yKXT-13" value="Route 53(DNS Router)" style="sketch=0;points=[[0,0,0],[0.25,0,0],[0.5,0,0],[0.75,0,0],[1,0,0],[0,1,0],[0.25,1,0],[0.5,1,0],[0.75,1,0],[1,1,0],[0,0.25,0],[0,0.5,0],[0,0.75,0],[1,0.25,0],[1,0.5,0],[1,0.75,0]];outlineConnect=0;fontColor=#232F3E;fillColor=#8C4FFF;strokeColor=#ffffff;dashed=0;verticalLabelPosition=bottom;verticalAlign=top;align=center;html=1;fontSize=12;fontStyle=0;aspect=fixed;shape=mxgraph.aws4.resourceIcon;resIcon=mxgraph.aws4.route_53;" vertex="1" parent="aJpDnl_E3ih4D521yKXT-9">
          <mxGeometry x="730" y="80" width="58" height="58" as="geometry" />
        </mxCell>
        <mxCell id="aJpDnl_E3ih4D521yKXT-14" value="CloudFront(CDN)" style="sketch=0;points=[[0,0,0],[0.25,0,0],[0.5,0,0],[0.75,0,0],[1,0,0],[0,1,0],[0.25,1,0],[0.5,1,0],[0.75,1,0],[1,1,0],[0,0.25,0],[0,0.5,0],[0,0.75,0],[1,0.25,0],[1,0.5,0],[1,0.75,0]];outlineConnect=0;fontColor=#232F3E;fillColor=#8C4FFF;strokeColor=#ffffff;dashed=0;verticalLabelPosition=bottom;verticalAlign=top;align=center;html=1;fontSize=12;fontStyle=0;aspect=fixed;shape=mxgraph.aws4.resourceIcon;resIcon=mxgraph.aws4.cloudfront;" vertex="1" parent="aJpDnl_E3ih4D521yKXT-9">
          <mxGeometry x="560" y="80" width="58" height="58" as="geometry" />
        </mxCell>
        <mxCell id="aJpDnl_E3ih4D521yKXT-15" value="Cached Distribution&lt;div&gt;TTL&amp;lt;1 day&lt;/div&gt;" style="rounded=0;whiteSpace=wrap;html=1;" vertex="1" parent="aJpDnl_E3ih4D521yKXT-9">
          <mxGeometry x="610" y="170" width="90" height="50" as="geometry" />
        </mxCell>
        <mxCell id="aJpDnl_E3ih4D521yKXT-16" value="" style="sketch=0;points=[[0,0,0],[0.25,0,0],[0.5,0,0],[0.75,0,0],[1,0,0],[0,1,0],[0.25,1,0],[0.5,1,0],[0.75,1,0],[1,1,0],[0,0.25,0],[0,0.5,0],[0,0.75,0],[1,0.25,0],[1,0.5,0],[1,0.75,0]];outlineConnect=0;fontColor=#232F3E;fillColor=#7AA116;strokeColor=#ffffff;dashed=0;verticalLabelPosition=bottom;verticalAlign=top;align=center;html=1;fontSize=12;fontStyle=0;aspect=fixed;shape=mxgraph.aws4.resourceIcon;resIcon=mxgraph.aws4.s3;" vertex="1" parent="aJpDnl_E3ih4D521yKXT-9">
          <mxGeometry x="250" y="80" width="60" height="60" as="geometry" />
        </mxCell>
        <mxCell id="aJpDnl_E3ih4D521yKXT-17" value="" style="sketch=0;points=[[0,0,0],[0.25,0,0],[0.5,0,0],[0.75,0,0],[1,0,0],[0,1,0],[0.25,1,0],[0.5,1,0],[0.75,1,0],[1,1,0],[0,0.25,0],[0,0.5,0],[0,0.75,0],[1,0.25,0],[1,0.5,0],[1,0.75,0]];outlineConnect=0;fontColor=#232F3E;fillColor=#ED7100;strokeColor=#ffffff;dashed=0;verticalLabelPosition=bottom;verticalAlign=top;align=center;html=1;fontSize=12;fontStyle=0;aspect=fixed;shape=mxgraph.aws4.resourceIcon;resIcon=mxgraph.aws4.lambda;" vertex="1" parent="aJpDnl_E3ih4D521yKXT-9">
          <mxGeometry x="430" y="320" width="50" height="50" as="geometry" />
        </mxCell>
        <mxCell id="aJpDnl_E3ih4D521yKXT-18" value="" style="sketch=0;points=[[0,0,0],[0.25,0,0],[0.5,0,0],[0.75,0,0],[1,0,0],[0,1,0],[0.25,1,0],[0.5,1,0],[0.75,1,0],[1,1,0],[0,0.25,0],[0,0.5,0],[0,0.75,0],[1,0.25,0],[1,0.5,0],[1,0.75,0]];outlineConnect=0;fontColor=#232F3E;fillColor=#E7157B;strokeColor=#ffffff;dashed=0;verticalLabelPosition=bottom;verticalAlign=top;align=center;html=1;fontSize=12;fontStyle=0;aspect=fixed;shape=mxgraph.aws4.resourceIcon;resIcon=mxgraph.aws4.api_gateway;" vertex="1" parent="aJpDnl_E3ih4D521yKXT-9">
          <mxGeometry x="260" y="320" width="50" height="50" as="geometry" />
        </mxCell>
        <mxCell id="aJpDnl_E3ih4D521yKXT-19" value="DynamoDB (Atomic Counter)" style="sketch=0;points=[[0,0,0],[0.25,0,0],[0.5,0,0],[0.75,0,0],[1,0,0],[0,1,0],[0.25,1,0],[0.5,1,0],[0.75,1,0],[1,1,0],[0,0.25,0],[0,0.5,0],[0,0.75,0],[1,0.25,0],[1,0.5,0],[1,0.75,0]];outlineConnect=0;fontColor=#232F3E;fillColor=#C925D1;strokeColor=#ffffff;dashed=0;verticalLabelPosition=bottom;verticalAlign=top;align=center;html=1;fontSize=12;fontStyle=0;aspect=fixed;shape=mxgraph.aws4.resourceIcon;resIcon=mxgraph.aws4.dynamodb;" vertex="1" parent="aJpDnl_E3ih4D521yKXT-9">
          <mxGeometry x="690" y="300" width="60" height="60" as="geometry" />
        </mxCell>
        <mxCell id="aJpDnl_E3ih4D521yKXT-32" style="edgeStyle=orthogonalEdgeStyle;rounded=0;orthogonalLoop=1;jettySize=auto;html=1;" edge="1" parent="aJpDnl_E3ih4D521yKXT-9" source="aJpDnl_E3ih4D521yKXT-20" target="aJpDnl_E3ih4D521yKXT-18">
          <mxGeometry relative="1" as="geometry" />
        </mxCell>
        <mxCell id="aJpDnl_E3ih4D521yKXT-34" style="edgeStyle=orthogonalEdgeStyle;rounded=0;orthogonalLoop=1;jettySize=auto;html=1;" edge="1" parent="aJpDnl_E3ih4D521yKXT-9" source="aJpDnl_E3ih4D521yKXT-20" target="aJpDnl_E3ih4D521yKXT-16">
          <mxGeometry relative="1" as="geometry" />
        </mxCell>
        <mxCell id="aJpDnl_E3ih4D521yKXT-20" value="&lt;span style=&quot;font-weight: normal;&quot;&gt;POST/GET Request&lt;/span&gt;" style="rounded=0;whiteSpace=wrap;html=1;fontStyle=1" vertex="1" parent="aJpDnl_E3ih4D521yKXT-9">
          <mxGeometry x="200" y="230" width="70" height="40" as="geometry" />
        </mxCell>
        <mxCell id="aJpDnl_E3ih4D521yKXT-30" style="edgeStyle=orthogonalEdgeStyle;rounded=0;orthogonalLoop=1;jettySize=auto;html=1;" edge="1" parent="aJpDnl_E3ih4D521yKXT-9" source="aJpDnl_E3ih4D521yKXT-21" target="aJpDnl_E3ih4D521yKXT-17">
          <mxGeometry relative="1" as="geometry" />
        </mxCell>
        <mxCell id="aJpDnl_E3ih4D521yKXT-21" value="Invoke Function" style="rounded=0;whiteSpace=wrap;html=1;" vertex="1" parent="aJpDnl_E3ih4D521yKXT-9">
          <mxGeometry x="340" y="260" width="70" height="40" as="geometry" />
        </mxCell>
        <mxCell id="aJpDnl_E3ih4D521yKXT-22" value="Website Viewer Counter" style="rounded=0;whiteSpace=wrap;html=1;" vertex="1" parent="aJpDnl_E3ih4D521yKXT-9">
          <mxGeometry x="540" y="270" width="70" height="40" as="geometry" />
        </mxCell>
        <mxCell id="aJpDnl_E3ih4D521yKXT-23" value="OAC" style="rounded=0;whiteSpace=wrap;html=1;" vertex="1" parent="aJpDnl_E3ih4D521yKXT-9">
          <mxGeometry x="400" y="70" width="60" height="30" as="geometry" />
        </mxCell>
        <mxCell id="aJpDnl_E3ih4D521yKXT-25" value="" style="endArrow=classic;html=1;rounded=0;entryX=1;entryY=0.5;entryDx=0;entryDy=0;entryPerimeter=0;" edge="1" parent="aJpDnl_E3ih4D521yKXT-9" target="aJpDnl_E3ih4D521yKXT-14">
          <mxGeometry width="50" height="50" relative="1" as="geometry">
            <mxPoint x="730" y="108.49" as="sourcePoint" />
            <mxPoint x="618" y="111.51638297872346" as="targetPoint" />
          </mxGeometry>
        </mxCell>
        <mxCell id="aJpDnl_E3ih4D521yKXT-27" value="" style="endArrow=classic;html=1;rounded=0;" edge="1" parent="aJpDnl_E3ih4D521yKXT-9" source="aJpDnl_E3ih4D521yKXT-14" target="aJpDnl_E3ih4D521yKXT-16">
          <mxGeometry width="50" height="50" relative="1" as="geometry">
            <mxPoint x="450" y="158.49" as="sourcePoint" />
            <mxPoint x="478.68936347971385" y="80" as="targetPoint" />
          </mxGeometry>
        </mxCell>
        <mxCell id="aJpDnl_E3ih4D521yKXT-33" style="edgeStyle=orthogonalEdgeStyle;rounded=0;orthogonalLoop=1;jettySize=auto;html=1;entryX=1;entryY=0.5;entryDx=0;entryDy=0;entryPerimeter=0;" edge="1" parent="aJpDnl_E3ih4D521yKXT-9" source="aJpDnl_E3ih4D521yKXT-21" target="aJpDnl_E3ih4D521yKXT-18">
          <mxGeometry relative="1" as="geometry" />
        </mxCell>
        <mxCell id="aJpDnl_E3ih4D521yKXT-35" style="edgeStyle=orthogonalEdgeStyle;rounded=0;orthogonalLoop=1;jettySize=auto;html=1;entryX=1;entryY=0.75;entryDx=0;entryDy=0;entryPerimeter=0;" edge="1" parent="aJpDnl_E3ih4D521yKXT-9" source="aJpDnl_E3ih4D521yKXT-22" target="aJpDnl_E3ih4D521yKXT-17">
          <mxGeometry relative="1" as="geometry" />
        </mxCell>
        <mxCell id="aJpDnl_E3ih4D521yKXT-36" style="edgeStyle=orthogonalEdgeStyle;rounded=0;orthogonalLoop=1;jettySize=auto;html=1;entryX=0;entryY=0.5;entryDx=0;entryDy=0;entryPerimeter=0;" edge="1" parent="aJpDnl_E3ih4D521yKXT-9" source="aJpDnl_E3ih4D521yKXT-22" target="aJpDnl_E3ih4D521yKXT-19">
          <mxGeometry relative="1" as="geometry" />
        </mxCell>
        <mxCell id="aJpDnl_E3ih4D521yKXT-10" value="User" style="sketch=0;pointerEvents=1;shadow=0;dashed=0;html=1;strokeColor=none;labelPosition=center;verticalLabelPosition=bottom;verticalAlign=top;align=center;fillColor=#505050;shape=mxgraph.mscae.intune.user_group" vertex="1" parent="1">
          <mxGeometry x="1040" y="200" width="50" height="37" as="geometry" />
        </mxCell>
        <mxCell id="aJpDnl_E3ih4D521yKXT-24" value="" style="endArrow=classic;html=1;rounded=0;" edge="1" parent="1">
          <mxGeometry width="50" height="50" relative="1" as="geometry">
            <mxPoint x="1040" y="230" as="sourcePoint" />
            <mxPoint x="870" y="230" as="targetPoint" />
          </mxGeometry>
        </mxCell>
      </root>
    </mxGraphModel>
  </diagram>
</mxfile>
